<?xml version="1.0" encoding="UTF-8" standalone="no"?>
<!-- Created with Inkscape (http://www.inkscape.org/) -->

<svg
   width="1920"
   height="1080"
   viewBox="0 0 1920 1080"
   version="1.1"
   id="svg1"
   sodipodi:docname="logo youtube.svg"
   inkscape:version="1.4.2 (f4327f4, 2025-05-13)"
   xmlns:inkscape="http://www.inkscape.org/namespaces/inkscape"
   xmlns:sodipodi="http://sodipodi.sourceforge.net/DTD/sodipodi-0.dtd"
   xmlns="http://www.w3.org/2000/svg"
   xmlns:svg="http://www.w3.org/2000/svg">
  <sodipodi:namedview
     id="namedview1"
     pagecolor="#ffffff"
     bordercolor="#000000"
     borderopacity="0.25"
     inkscape:showpageshadow="2"
     inkscape:pageopacity="0.0"
     inkscape:pagecheckerboard="0"
     inkscape:deskcolor="#d1d1d1"
     inkscape:document-units="px"
     inkscape:zoom="0.4"
     inkscape:cx="1102.5"
     inkscape:cy="603.75"
     inkscape:window-width="1920"
     inkscape:window-height="991"
     inkscape:window-x="-9"
     inkscape:window-y="-9"
     inkscape:window-maximized="1"
     inkscape:current-layer="layer1" />
  <defs
     id="defs1">
    <inkscape:path-effect
       effect="perspective-envelope"
       up_left_point="955.09795,188.28945"
       up_right_point="1765.5379,190.60708"
       down_left_point="955.29124,769.42543"
       down_right_point="1765.5379,769.16031"
       id="path-effect14"
       is_visible="true"
       lpeversion="1"
       deform_type="perspective"
       horizontal_mirror="false"
       vertical_mirror="false"
       overflow_perspective="false" />
    <inkscape:path-effect
       effect="perspective-envelope"
       up_left_point="954.84994,178.49524"
       up_right_point="1765.538,478.49524"
       down_left_point="951.32881,781.94696"
       down_right_point="1765.538,656.59485"
       id="path-effect13"
       is_visible="true"
       lpeversion="1"
       deform_type="perspective"
       horizontal_mirror="false"
       vertical_mirror="false"
       overflow_perspective="false" />
    <inkscape:path-effect
       effect="perspective-envelope"
       up_left_point="173.3801,478.49524"
       up_right_point="959.24269,174.46299"
       down_left_point="173.3801,656.59485"
       down_right_point="955.21042,781.59485"
       id="path-effect12"
       is_visible="true"
       lpeversion="1"
       deform_type="perspective"
       horizontal_mirror="false"
       vertical_mirror="false"
       overflow_perspective="false" />
    <inkscape:path-effect
       effect="slice"
       start_point="953.6055,473.61664"
       end_point="954.82501,649.2787"
       center_point="954.21526,561.44767"
       id="path-effect11"
       is_visible="true"
       lpeversion="1.2"
       lpesatellites=""
       allow_transforms="true" />
    <inkscape:perspective
       sodipodi:type="inkscape:persp3d"
       inkscape:vp_x="-131.13043 : 477.07987 : 1"
       inkscape:vp_y="0 : 1219.0099 : 0"
       inkscape:vp_z="2095.4063 : 477.07987 : 1"
       inkscape:persp3d-origin="982.13768 : 257.65806 : 1"
       id="perspective6" />
    <inkscape:path-effect
       effect="perspective-envelope"
       up_left_point="399.0119,525.22665"
       up_right_point="1622.9654,317.53434"
       down_left_point="402.08882,692.31204"
       down_right_point="1627.5808,852.31204"
       id="path-effect5"
       is_visible="true"
       lpeversion="1"
       deform_type="perspective"
       horizontal_mirror="false"
       vertical_mirror="false"
       overflow_perspective="false" />
  </defs>
  <g
     inkscape:label="Capa 1"
     inkscape:groupmode="layer"
     id="layer1">
    <rect
       style="fill:#000000"
       id="rect14"
       width="1920"
       height="1080"
       x="0"
       y="0" />
    <rect
       style="fill:none;stroke-width:1"
       id="rect15"
       width="1090"
       height="1010"
       x="390"
       y="30"
       ry="0" />
    <rect
       style="fill:#000000"
       id="rect16"
       width="1920"
       height="1080"
       x="0"
       y="0" />
    <rect
       style="fill:none"
       id="rect17"
       width="1137.5"
       height="985"
       x="387.5"
       y="32.5" />
    <rect
       style="fill:none"
       id="rect18"
       width="1195"
       height="960"
       x="295"
       y="62.5"
       ry="0" />
    <rect
       style="fill:#000000;stroke-width:1.02;stroke-dasharray:none"
       id="rect24"
       width="7.5"
       height="182.5"
       x="1552.5"
       y="437.5" />
    <path
       d="m 310.72545,425.35947 c -7.47884,2.89339 -13.91485,7.6661 -19.38533,14.26711 -5.28873,6.32895 -9.35885,13.76888 -12.27439,22.3433 -2.82888,8.44438 -4.51597,16.77487 -5.08787,25.05742 -0.57023,8.16744 -0.86133,20.29399 -0.87494,36.39318 l -0.0551,65.22532 c -0.0185,21.86366 0.88147,38.30419 2.71133,49.39744 1.84545,11.09452 5.66868,20.15063 11.57632,27.23835 6.0703,7.28286 14.03574,11.77663 24.09341,13.38467 10.10718,1.61594 18.948,-1.08388 26.35618,-8.3172 7.70386,-7.452 12.79681,-16.8408 15.11232,-28.06546 2.40384,-11.32641 3.63633,-30.81564 3.67918,-58.40102 l 0.0161,-10.39104 -39.04209,2.37989 -0.0378,30.90247 c -0.0165,13.49232 -0.45503,22.04075 -1.31205,25.63765 -0.79734,3.58745 -2.51702,5.28265 -5.14011,5.09591 -2.70345,-0.19247 -4.42342,-2.09848 -5.18035,-5.71035 -0.75447,-3.60012 -1.12419,-11.21728 -1.11121,-22.86305 l 0.1242,-111.44183 c 0.0136,-12.16465 0.40119,-20.18459 1.16504,-24.06516 0.76644,-3.89373 2.5758,-6.27025 5.45221,-7.12731 2.57461,-0.76714 4.23928,0.30712 4.9735,3.23429 0.79365,2.81858 1.18374,10.48445 1.16845,22.98925 l -0.0525,42.98407 39.06066,-5.73564 0.0395,-25.42145 c 0.0388,-24.99251 -1.20257,-43.02847 -3.70734,-54.01725 -2.48032,-10.99115 -7.61484,-18.99403 -15.24061,-23.9756 -7.39625,-4.83168 -16.47102,-5.08171 -27.0267,-0.99796 z M 630.09377,301.80318 c -21.11646,8.16947 -38.92639,18.83847 -53.81074,31.93152 -14.16681,12.37598 -24.93039,25.93794 -32.57264,40.79441 -7.35468,14.49746 -11.72147,28.37164 -13.21148,41.80682 -1.48292,13.22795 -2.2601,32.7058 -2.33754,58.46899 l -0.31363,104.33555 c -0.10509,34.95802 2.15458,61.28603 6.82574,79.17949 4.7354,17.98832 14.66201,33.02589 30.23325,45.32229 16.27668,12.8535 38.08841,21.63998 66.37966,26.16322 29.29606,4.6839 55.67907,1.7503 78.36174,-9.50959 24.14795,-11.86275 40.45749,-27.86889 47.98599,-47.75799 7.87382,-20.21489 11.98561,-55.4264 12.23842,-105.41098 l 0.0953,-18.83344 -120.69838,7.3574 -0.21271,52.71654 c -0.0928,23.01042 -1.39589,37.56077 -3.89405,43.62916 -2.31915,6.04136 -7.28229,8.77801 -14.79474,8.24318 -7.6816,-0.54687 -12.53112,-3.88494 -14.64887,-9.99613 -2.10621,-6.07792 -3.11845,-18.84525 -3.04583,-38.33341 l 0.69541,-186.61923 c 0.076,-20.38518 1.18858,-33.94537 3.34752,-40.6996 2.17124,-6.7927 7.29512,-11.40553 15.48846,-13.84685 7.39343,-2.20297 12.19905,-0.96212 14.31811,3.76989 2.29697,4.53689 3.40696,17.49678 3.32078,38.85557 l -0.29614,73.39445 120.82138,-17.74133 0.23324,-46.11474 c 0.22939,-45.35239 -3.77051,-77.56549 -11.89646,-96.35849 -7.98364,-18.66167 -24.37217,-30.5398 -48.2585,-35.6696 -22.63509,-4.86112 -49.73613,-0.92217 -80.35325,10.9229 z M 173.3801,482.0904 v 34.24474 l 10.58351,-2.86506 -0.0127,141.116 19.52504,2.90695 0.0381,-149.31547 12.72346,-3.44437 0.0141,-38.75565 z m 48.00374,-18.04174 -0.0797,196.09867 44.16906,6.57601 0.0343,-43.82576 -19.91819,-0.87621 0.0281,-45.89227 16.8356,-1.20084 0.0313,-41.41417 -16.84254,2.88266 0.0243,-39.63012 18.05517,-4.88772 0.0335,-43.75488 z m 151.1206,-56.79718 -0.46426,275.33786 49.06341,7.30471 0.26558,-126.30086 16.54685,-1.18024 -0.29146,129.94078 62.8408,9.35592 0.95214,-342.90887 -63.09797,23.71474 -0.24895,110.99122 -16.56059,3.11363 0.22683,-107.8724 z m 582.59351,-218.96203 -85.05497,31.96708 -82.59705,524.17961 167.84531,24.98929 z"
       id="text6"
       style="font-stretch:condensed;font-size:225.252px;font-family:Impact;-inkscape-font-specification:'Impact, Condensed';fill:#f2f2f2;stroke-width:2.58918"
       aria-label="TECHCASTILLO"
       inkscape:path-effect="#path-effect12"
       inkscape:original-d="m 500.70041,478.49524 c -12.74306,0 -24.04471,1.65299 -33.9043,4.96093 -9.76657,3.23757 -17.44059,7.70729 -23.02148,13.40821 -5.48789,5.70091 -8.79006,11.64819 -9.90625,17.84179 -1.11619,6.12322 -1.67383,15.34335 -1.67383,27.66016 v 49.93555 c 0,16.75086 1.81382,29.31402 5.44141,37.68945 3.62758,8.30505 11.0218,14.81567 22.18359,19.53125 11.16181,4.71559 25.34691,7.07227 42.55469,7.07227 16.55666,0 30.46196,-2.77969 41.71679,-8.33985 11.34783,-5.56016 18.64878,-12.03569 21.9043,-19.42578 3.34855,-7.39007 5.02344,-19.91619 5.02344,-37.58203 v -6.65234 h -58.73828 v 21.43164 c 0,9.36078 -0.69856,15.30805 -2.09375,17.84179 -1.30222,2.53375 -4.13806,3.80078 -8.50977,3.80078 -4.55772,0 -7.48879,-1.26703 -8.79101,-3.80078 -1.30221,-2.53374 -1.95313,-7.95276 -1.95313,-16.25781 v -79.39062 c 0,-8.65696 0.65092,-14.28845 1.95313,-16.89258 1.30222,-2.60414 4.37221,-3.90625 9.20898,-3.90625 4.2787,0 7.02323,1.09159 8.23242,3.27344 1.30219,2.11145 1.95313,7.49538 1.95313,16.15234 v 29.77148 h 58.73828 v -16.25781 c 0,-15.97666 -1.7662,-27.73087 -5.30078,-35.26172 -3.53457,-7.60124 -10.93072,-13.93448 -22.18555,-19.00195 -11.25481,-5.06749 -25.53125,-7.60156 -42.83203,-7.60156 z m 316.85547,0 c -12.74305,0 -24.04471,1.65299 -33.9043,4.96093 -9.76659,3.23757 -17.44059,7.70729 -23.02148,13.40821 -5.48789,5.70091 -8.79007,11.64819 -9.90625,17.84179 -1.11617,6.12322 -1.67383,15.34335 -1.67383,27.66016 v 49.93555 c 0,16.75086 1.81385,29.31402 5.44141,37.68945 3.6276,8.30505 11.0218,14.81567 22.18359,19.53125 11.16179,4.71559 25.34691,7.07227 42.55469,7.07227 16.55668,0 30.46199,-2.77969 41.71679,-8.33985 11.34784,-5.56016 18.65073,-12.03569 21.90625,-19.42578 3.34854,-7.39007 5.02149,-19.91619 5.02149,-37.58203 v -6.65234 h -58.73828 v 21.43164 c 0,9.36078 -0.69853,15.30805 -2.09375,17.84179 -1.30222,2.53375 -4.13808,3.80078 -8.50977,3.80078 -4.55775,0 -7.4888,-1.26703 -8.79101,-3.80078 -1.3022,-2.53374 -1.95313,-7.95276 -1.95313,-16.25781 v -79.39062 c 0,-8.65696 0.65093,-14.28845 1.95313,-16.89258 1.30221,-2.60414 4.37219,-3.90625 9.20898,-3.90625 4.27868,0 7.02322,1.09159 8.23242,3.27344 1.30221,2.11145 1.95313,7.49538 1.95313,16.15234 v 29.77148 h 58.73828 v -16.25781 c 0,-15.97666 -1.76622,-27.73087 -5.30078,-35.26172 -3.53458,-7.60124 -10.93074,-13.93448 -22.18555,-19.00195 -11.25483,-5.06749 -25.53126,-7.60156 -42.83203,-7.60156 z m -644.17578,3.58984 v 34.20508 h 34.74023 v 136.7168 h 58.74024 v -136.7168 h 34.88086 v -34.20508 z m 141.7539,0 v 170.92188 h 101.85157 v -34.20704 h -43.11133 v -37.58398 h 36.69336 v -32.51563 h -36.69336 v -32.41015 h 39.20508 v -34.20508 z m 276.95313,0 v 170.92188 h 58.73828 v -71.79102 h 17.58008 v 71.79102 h 58.74023 V 482.08508 h -58.74023 v 61.125 h -17.58008 v -61.125 z m 360.32378,0 h -27.00542 l -29.85742,170.92188 h 58.04945 z"
       transform="translate(-42.142594,-38.00307)" />
    <path
       id="path12"
       d="m 1325.0167,314.13924 c -22.4182,-8.36583 -42.6111,-11.71703 -60.1368,-9.61443 -18.2906,2.01642 -32.1074,9.35394 -40.9787,22.14035 -8.8653,13.10731 -13.4289,37.03976 -13.5589,71.6029 -0.09,23.98077 2.9813,44.26285 9.1525,60.67225 6.2718,16.21198 14.0132,29.13663 23.1446,38.79004 8.9422,9.45327 26.6278,24.59976 51.9823,44.63015 23.8611,18.68638 38.1195,31.28506 43.7577,38.52843 5.418,7.1354 8.0665,21.94972 8.0025,44.52307 -0.029,10.26287 -1.4979,18.07395 -4.4236,23.46511 -2.8085,5.42403 -7.1865,8.3558 -13.1883,8.76778 -6.0962,0.41847 -10.4272,-1.41119 -12.9371,-5.51668 -2.3758,-4.13996 -3.5464,-13.73132 -3.5004,-28.74602 l 0.1495,-48.73333 -99.0692,-3.73971 -0.1102,29.50129 c -0.1263,33.78698 3.2821,59.6608 10.1449,77.40224 6.7589,17.47041 20.7539,30.62558 41.2987,39.33781 19.7474,8.28177 42.3512,10.25745 67.271,6.40936 21.3874,-3.30259 39.1952,-10.24978 53.8453,-20.66203 14.0749,-10.14988 23.2429,-21.2973 27.8682,-33.6082 4.6761,-12.1556 7.0195,-30.48641 7.077,-55.11466 0.079,-33.86822 -3.9673,-58.70154 -12.2851,-74.7925 -8.5216,-16.48418 -30.1216,-39.68619 -67.2964,-71.58253 -13.8768,-11.86718 -22.5444,-21.62267 -25.6381,-28.97585 -3.2678,-7.4439 -4.8929,-17.86981 -4.8517,-31.2335 0.032,-10.39231 1.4871,-17.75585 4.3446,-22.06958 2.985,-4.24041 7.2577,-5.54814 12.7776,-3.96076 5.0158,1.44239 8.5542,4.30008 10.6537,8.56235 2.0883,4.23911 3.1074,13.0044 3.0692,26.322 l -0.082,28.54849 73.7509,15.44574 0.033,-13.75529 c 0.066,-27.64138 -2.0501,-47.82697 -6.3898,-60.68897 -4.277,-13.13047 -13.3259,-26.00383 -27.5198,-38.87517 -14.6442,-13.34982 -33.2404,-24.35375 -56.3567,-32.98015 z m 419.2929,156.46854 c -4.2821,-1.59797 -8.1177,-1.31108 -11.4759,0.92122 -3.4205,2.27359 -6.1902,6.36216 -8.278,12.2828 -2.0765,5.99761 -3.3341,13.01706 -3.757,21.0217 -0.3887,7.95183 -0.5865,21.66672 -0.5925,41.13743 l -0.01,33.16847 c -0.01,19.9638 0.2006,33.93777 0.6199,41.90364 0.4183,7.94921 1.7253,15.20871 3.9024,21.73863 2.1524,6.45615 4.9522,11.11164 8.3702,13.98031 3.3885,2.73536 7.1275,3.76455 11.1939,3.13663 4.1879,-0.64669 7.777,-2.84879 10.8001,-6.57026 2.9713,-3.65776 5.2867,-8.57492 6.9715,-14.75146 1.6958,-6.1179 2.6885,-12.73063 2.9907,-19.87341 0.329,-7.20037 0.4932,-19.38439 0.4932,-36.56171 l 0,-29.24202 c 0,-17.58858 -0.1641,-29.93651 -0.4929,-37.05926 -0.3294,-7.13595 -1.3631,-13.96905 -3.1137,-20.53871 -1.7685,-6.63723 -4.1406,-12.00551 -7.1418,-16.10544 -3.0242,-4.23393 -6.5089,-7.10672 -10.4799,-8.58856 z m -788.36311,298.81744 9.38019,-1.34866 12.09162,-104.28356 64.9596,-3.42207 7.9804,95.48004 147.94,-21.2704 -74.9981,-485.30931 -168.20225,-60.98181 z m 475.35001,-408.4897 -0.1539,67.96706 38.1759,9.97604 -0.5153,256.80954 55.6797,-8.00546 0.3819,-234.28887 28.603,7.47448 0.08,-55.61056 z m 132.4923,48.03515 -0.3733,273.11441 40.8425,-5.87222 0.2753,-252.47023 z m 55.4186,20.09205 -0.2429,245.03568 51.1393,-7.35266 0.028,-43.91697 -18.0073,0.76262 0.1401,-182.54366 z m 57.8084,20.95847 -0.1294,215.74936 40.1417,-5.77145 0.013,-39.15695 -14.2524,0.6036 0.069,-162.05569 z m 67.3822,51.32367 c 1.2001,0.34513 1.9803,1.75906 2.3461,4.23864 0.3955,2.40864 0.5926,7.79936 0.5916,16.17534 l -0.01,82.77193 c -0,10.61294 -0.1845,17.33997 -0.5504,20.18291 -0.3667,2.84887 -1.2092,4.32074 -2.5344,4.41171 -1.3038,0.0895 -2.1471,-1.09599 -2.5227,-3.55978 -0.345,-2.47043 -0.5169,-9.02982 -0.5152,-19.67463 l 0.014,-85.55513 c 0,-9.42467 0.2698,-15.00562 0.8029,-16.74001 0.5626,-1.79548 1.3562,-2.54485 2.3782,-2.25098 z M 1012.3324,332.41411 c 8.6033,93.25652 17.1421,170.65398 25.6255,232.53768 l -62.2844,-2.31221 c 5.1298,-50.12876 17.50995,-127.67354 36.6589,-230.22547 z"
       style="font-stretch:condensed;font-size:225.252px;font-family:Impact;-inkscape-font-specification:'Impact, Condensed';display:inline;fill:#f2f2f2;stroke-width:2.58918"
       inkscape:original-d="m 1115.3641,478.49524 c -13.9522,0 -25.8591,1.72316 -35.7187,5.17187 -9.8594,3.37832 -17.0215,8.09365 -21.4863,14.14649 -4.3717,6.05283 -6.5567,15.62579 -6.5567,28.71679 0,9.07926 1.5341,16.53918 4.6035,22.38086 3.1626,5.8417 7.1157,10.41668 11.8594,13.72461 4.7438,3.30795 14.4182,8.6217 29.0215,15.94141 14.6035,7.24932 23.7638,12.42273 27.4844,15.51953 3.6276,3.0968 5.4414,9.67759 5.4414,19.74219 0,4.57481 -0.9765,8.02311 -2.9297,10.3457 -1.8604,2.32261 -4.7438,3.48438 -8.6504,3.48438 -3.9066,0 -6.6491,-0.91421 -8.2305,-2.74415 -1.4881,-1.82992 -2.2324,-5.94877 -2.2324,-12.35351 v -20.79688 h -54.5547 v 11.18946 c 0,12.80948 1.7207,22.69821 5.1621,29.66601 3.4418,6.9678 10.697,12.70455 21.7656,17.20899 11.1618,4.50442 24.6028,6.75586 40.3223,6.75586 14.3245,0 26.8822,-1.93369 37.6719,-5.80469 10.7898,-3.94138 18.0449,-8.79901 21.7656,-14.57031 3.8135,-5.77131 5.7207,-14.74388 5.7207,-26.91993 0,-16.75086 -3.3956,-28.89298 -10.1855,-36.42382 -6.7903,-7.53084 -23.2535,-17.17201 -49.3907,-28.92578 -9.1154,-4.08212 -14.6501,-7.56747 -16.6035,-10.45313 -2.0462,-2.88566 -3.0703,-7.17799 -3.0703,-12.87891 0,-4.43405 0.8852,-7.74198 2.6524,-9.92382 1.8604,-2.18185 4.5573,-3.27344 8.0918,-3.27344 3.2556,0 5.5814,0.81089 6.9765,2.42969 1.3953,1.61878 2.0918,5.38285 2.0918,11.29492 v 12.66992 h 54.5528 v -6.75781 c -10e-5,-13.58368 -1.7663,-23.18977 -5.3008,-28.82032 -3.4417,-5.70092 -10.558,-10.41625 -21.3477,-14.14648 -10.6967,-3.73023 -23.6713,-5.5957 -38.9258,-5.5957 z m 582.2266,0 c -12.7431,0 -23.904,1.58281 -33.4844,4.75 -9.5806,3.16717 -17.2089,7.70707 -22.8828,13.61914 -5.5811,5.91206 -8.9288,12.45777 -10.0449,19.63672 -1.0231,7.10855 -1.5352,19.24873 -1.5352,36.42187 v 29.24414 c 0,17.59545 0.5577,29.913 1.6739,36.95117 1.1162,7.03818 4.6049,13.54685 10.4648,19.5293 5.8599,5.98245 13.5797,10.48726 23.1602,13.51367 9.6737,2.95604 20.5565,4.4336 32.6484,4.4336 12.743,0 23.9057,-1.58282 33.4863,-4.75 9.5805,-3.16718 17.1611,-7.70707 22.7422,-13.61914 5.6738,-5.91207 9.0217,-12.42269 10.0449,-19.53125 1.1162,-7.17894 1.6739,-19.35419 1.6739,-36.52735 v -29.24414 c 0,-17.59543 -0.5577,-29.91104 -1.6739,-36.94922 -1.1161,-7.03819 -4.6047,-13.54881 -10.4648,-19.53125 -5.8597,-5.98246 -13.6252,-10.45217 -23.2988,-13.4082 -9.5807,-3.02642 -20.4179,-4.53906 -32.5098,-4.53906 z M 956.03654,653.00696 h 2.78258 l 3.48828,-30.72266 h 21.06836 l 2.92969,30.72266 h 60.13485 l -33.625,-170.92188 H 954.84994 Z M 1194.1942,482.08508 v 34.20508 h 34.7402 v 136.7168 h 58.7403 v -136.7168 h 34.8789 v -34.20508 z m 141.7539,0 v 170.92188 h 58.7403 V 482.08508 Z m 82.3184,0 v 170.92188 h 94.457 v -34.20704 h -35.7168 V 482.08508 Z m 108.6875,0 v 170.92188 h 94.457 v -34.20704 h -35.7168 V 482.08508 Z m 170.916,25.33594 c 3.6273,0 5.9989,1.12667 7.1152,3.3789 1.2093,2.18184 1.8145,7.24999 1.8145,15.20313 v 78.54492 c 0,10.06459 -0.5575,16.43486 -1.6738,19.10938 -1.1161,2.6745 -3.6742,4.01172 -7.6739,4.01172 -3.9066,0 -6.419,-1.16177 -7.5351,-3.48438 -1.0234,-2.32259 -1.5352,-8.4453 -1.5352,-18.36914 v -79.8125 c 0,-8.79772 0.7917,-14.07639 2.3731,-15.83594 1.6743,-1.82994 4.0456,-2.74609 7.1152,-2.74609 z m -725.09776,12.88086 c 2.97648,28.43422 5.95125,52.3286 8.92774,71.68359 h -20.08985 c 1.48818,-15.13208 5.20909,-39.02645 11.16211,-71.68359 z"
       inkscape:path-effect="#path-effect13;#path-effect14"
       transform="translate(-42.470218,-38.00297)" />
  </g>
</svg>
